<svg xmlns="http://www.w3.org/2000/svg" width="1024" height="205.1" overflow="visible"><g fill="#fff"><path d="M533.7 99.6c-8.6 0-14.7 2.9-21 5.7V170c6 .6 9.4.6 15.1.6 20.6 0 23.4-9.4 23.4-22.6v-30.9c0-9.7-3.2-17.5-17.5-17.5zm-136.5-3.5c-14.2 0-17.5 7.8-17.5 17.5v5.5h35v-5.5c0-9.7-3.2-17.5-17.5-17.5zM133 163.5c0 7.6 3.6 11.6 11.6 11.6 8.6 0 13.7-2.8 20-5.6V154h-18.8c-8.9 0-12.8 1.7-12.8 9.4zm533.5-63.9c-14.3 0-19.2 7.8-19.2 17.5v35.4c0 9.8 5 17.6 19.2 17.6 14.3 0 19.2-7.8 19.2-17.6v-35.4c0-9.7-5-17.5-19.2-17.5zM63 203.2H21V101.6H0v-35h21v-21C21 17 32.8 0 66.5 0h28v35H77c-13.1 0-14 5-14 14v17.6h31.7l-3.7 35H63v101.6zm143.5.2h-35l-1.5-8.8a80.2 80.2 0 0 1-39.6 10.3c-25.7 0-39.3-17.2-39.3-40.9 0-28 15.9-38 44.4-38h29v-6c0-14.2-1.6-18.4-23.6-18.4H105l3.5-35h39.3c48.1 0 58.7 15.2 58.7 53.7v83.1zm119-99.3c-21.8-3.7-28-4.5-38.5-4.5-18.9 0-24.5 4.1-24.5 20.1V150c0 16 5.6 20.2 24.5 20.2 10.4 0 16.7-.8 38.5-4.6v34.2c-19.1 4.2-31.5 5.4-42 5.4-45.1 0-63-23.7-63-58v-24.5c0-34.3 17.9-58 63-58 10.5 0 22.9 1.1 42 5.4v34.1zm131.3 43h-77v2.8c0 16 5.7 20.2 24.5 20.2 17 0 27.3-.8 49-4.6v34.2c-21 4.2-31.9 5.4-52.4 5.4-45.1 0-63-23.7-63-58v-28c0-30 13.3-54.5 59.4-54.5 46.2 0 59.5 24.2 59.5 54.5v28zm136.4.7c0 33-9.4 57.2-66.7 57.2-20.7 0-32.8-1.8-55.7-5.3V10.5l42-7v66.2c9-3.4 20.8-5.1 31.5-5.1 42 0 49 18.8 49 49v34.2zm134.5.7c0 28.5-11.7 56.2-61 56.2-49.4 0-61.4-27.7-61.4-56.2v-27.6c0-28.5 12-56.2 61.4-56.2 49.3 0 61 27.7 61 56.2v27.6zm134.5 0c0 28.5-11.8 56.2-61.1 56.2-49.4 0-61.4-27.7-61.4-56.2v-27.6c0-28.5 12-56.2 61.4-56.2 49.3 0 61 27.7 61 56.2v27.6zm137.9 54.7h-45.5L916.1 139v64.2h-42V10.5l42-7v124l38.4-61h45.5l-42 66.6 42 70zM800.8 99.6c-14.2 0-19.2 7.8-19.2 17.5v35.4c0 9.8 5 17.6 19.2 17.6 14.3 0 19.3-7.8 19.3-17.6v-35.4c0-9.7-5-17.5-19.3-17.5zM1014 183.3a10 10 0 0 1 10 10.2 10 10 0 0 1-10 10.1 10 10 0 0 1-10-10.1 10 10 0 0 1 10-10.2zm0 1.6a8.4 8.4 0 0 0-8 8.6c0 4.8 3.6 8.6 8 8.6 4.6 0 8.2-3.8 8.2-8.6s-3.6-8.6-8.1-8.6zm-1.9 14.5h-1.8V188l3.2-.2a6 6 0 0 1 3.5.8c.7.5 1 1.3 1 2.4 0 1.5-1 2.4-2.1 2.7v.1c1 .2 1.6 1 1.9 2.8.2 1.7.5 2.4.7 2.8h-2c-.2-.4-.5-1.4-.7-3-.2-1.4-1-2-2.4-2h-1.3v5zm0-6.3h1.3c1.5 0 2.8-.5 2.8-2 0-1-.7-2-2.8-2l-1.3.2v3.8z"/></g></svg>